<?xml version="1.0" encoding="UTF-8"?>
<svg id="Layer_1" xmlns="http://www.w3.org/2000/svg" version="1.1" viewBox="0 0 619.58 140.33">
  <!-- Generator: Adobe Illustrator 30.1.0, SVG Export Plug-In . SVG Version: 2.1.1 Build 136)  -->
  <defs>
    <style>
      .st0 {
        fill: #ffffff;
        fill-rule: evenodd;
      }

      .st1 {
        fill: #ffffff;
      }

      .st2 {
        fill: #ffffff;
      }
    </style>
  </defs>
  <path class="st1" d="M.31,112.35l.72-4.44c3.26,3.04,7.49,4.55,12.71,4.55,1.89,0,3.54-.27,4.97-.8,1.42-.54,2.49-1.16,3.19-1.86.7-.7,1.26-1.51,1.67-2.42.41-.91.66-1.61.75-2.11.09-.5.14-.93.14-1.3,0-1.67-.61-3.2-1.83-4.61-1.22-1.41-3.72-3.66-7.49-6.77-1.67-1.41-2.86-2.44-3.58-3.11s-1.55-1.56-2.47-2.69c-.93-1.13-1.55-2.24-1.89-3.33-.33-1.09-.5-2.34-.5-3.75,0-4.33,1.7-7.86,5.11-10.58,3.4-2.72,7.92-4.08,13.55-4.08,1.07,0,2.25.08,3.53.25,1.28.17,2.65.45,4.11.86,1.46.41,2.67,1.03,3.64,1.86.96.83,1.44,1.82,1.44,2.97,0,.7-.26,1.57-.78,2.61l-1.83,3.72c-1.11-1.11-2.29-2.04-3.55-2.78-1.26-.74-2.45-1.24-3.58-1.5-1.13-.26-1.95-.42-2.47-.5-.52-.07-.98-.11-1.39-.11-2.37,0-4.31.61-5.83,1.83-1.52,1.22-2.28,2.85-2.28,4.89,0,1.59.51,2.95,1.53,4.08,1.02,1.13,3.62,3.34,7.8,6.63,2.96,2.41,5.07,4.67,6.33,6.8,1.26,2.13,1.89,4.43,1.89,6.91s-.42,4.51-1.25,6.41c-.83,1.91-1.93,3.48-3.3,4.72-1.37,1.24-2.97,2.27-4.8,3.08-1.83.82-3.71,1.4-5.63,1.75-1.92.35-3.91.53-5.94.53-3.66,0-6.96-.59-9.88-1.78-1.15-.48-1.93-1.01-2.36-1.58-.43-.57-.64-1.3-.64-2.19,0-1.15.07-1.87.22-2.17Z"/>
  <path class="st1" d="M47.91,115.79l-2.5,15.43c-.04.22-.1.69-.19,1.42-.09.72-.18,1.42-.25,2.11-.07.68-.11,1.29-.11,1.8,0,.3.02.57.06.83.04.26.06.47.08.64.02.17.08.38.19.64.11.26.18.42.22.5.04.07.14.27.31.58s.27.51.31.58h-12.88c.96-1.3,1.62-2.45,1.97-3.47.35-1.02.75-2.93,1.19-5.75l7.66-47.85c.44-3.11.67-5.2.67-6.27,0-1.48-.45-2.68-1.36-3.61-.91-.92-2.12-1.39-3.64-1.39-.93,0-2,.19-3.22.56l2.17-4.55c.22-.48.46-.86.72-1.14.26-.28.77-.56,1.53-.83.76-.28,1.73-.42,2.91-.42,1.48,0,2.77.24,3.86.72,1.09.48,1.93,1.01,2.53,1.58.59.57,1.09,1.36,1.5,2.36.41,1,.67,1.75.78,2.25.11.5.24,1.19.39,2.08.63-.85,1.14-1.51,1.53-1.97.39-.46,1.17-1.24,2.33-2.33,1.17-1.09,2.29-1.95,3.39-2.58,1.09-.63,2.51-1.21,4.25-1.75,1.74-.54,3.53-.81,5.38-.81,1.18,0,2.38.12,3.58.36,1.2.24,2.57.77,4.11,1.58,1.54.81,2.87,1.87,4,3.16,1.13,1.3,2.09,3.15,2.89,5.55.8,2.41,1.19,5.18,1.19,8.33,0,6.4-1.25,12.38-3.75,17.93-2.5,5.55-5.8,9.94-9.91,13.16-4.11,3.22-8.46,4.83-13.05,4.83s-8.38-1.42-10.83-4.27ZM67.95,72.77c-2.37,0-4.56.76-6.58,2.28-2.02,1.52-3.68,3.44-5,5.77-1.31,2.33-2.44,4.92-3.39,7.77-.94,2.85-1.63,5.56-2.05,8.13-.43,2.57-.64,4.91-.64,7.02,0,2.78.66,4.92,1.97,6.44,1.31,1.52,3.28,2.28,5.91,2.28s5.14-.88,7.44-2.64c2.29-1.76,4.18-4.06,5.66-6.91,1.48-2.85,2.64-6,3.47-9.47.83-3.46,1.25-6.93,1.25-10.41,0-6.85-2.68-10.27-8.05-10.27Z"/>
  <path class="st1" d="M120.7,104.97l-.44,3.55c-.37,2.41-.76,4.03-1.17,4.88-.41.85-1.35,1.8-2.83,2.83-1.55,1.07-3.51,1.98-5.86,2.72-2.35.74-4.75,1.11-7.19,1.11s-4.77-.49-6.88-1.47c-2.11-.98-3.87-2.3-5.27-3.97-2.96-3.52-4.44-8.33-4.44-14.43,0-4.44.71-8.8,2.14-13.07,1.42-4.28,3.35-8.03,5.77-11.27,2.42-3.24,5.36-5.85,8.8-7.83,3.44-1.98,7.07-2.97,10.88-2.97s6.77.9,8.88,2.69c2.11,1.8,3.16,4.12,3.16,6.97,0,1.67-.29,3.38-.86,5.14-.57,1.76-1.6,3.57-3.08,5.44-1.48,1.87-3.31,3.53-5.5,4.97-2.18,1.44-5.06,2.64-8.63,3.58-3.57.94-7.58,1.44-12.02,1.47-.41,3.15-.61,5-.61,5.55,0,.81.04,1.61.11,2.39.07.78.31,1.76.69,2.94.39,1.19.92,2.21,1.58,3.08.67.87,1.65,1.62,2.94,2.25,1.3.63,2.83.94,4.61.94,2.48,0,4.87-.6,7.16-1.8,2.29-1.2,4.98-3.1,8.05-5.69ZM97.5,89.03c3.26-.3,6.15-.86,8.69-1.69,2.53-.83,4.5-1.74,5.88-2.72,1.39-.98,2.53-2.06,3.41-3.25.89-1.18,1.47-2.2,1.75-3.05.28-.85.42-1.63.42-2.33,0-1.22-.4-2.21-1.19-2.97-.8-.76-1.92-1.14-3.36-1.14-.52,0-1.07.05-1.67.14-.59.09-1.55.46-2.86,1.11-1.31.65-2.55,1.52-3.72,2.61-1.17,1.09-2.43,2.79-3.8,5.11-1.37,2.31-2.55,5.04-3.55,8.19Z"/>
  <path class="st1" d="M160.3,104.97l-.44,3.55c-.37,2.41-.76,4.03-1.17,4.88-.41.85-1.35,1.8-2.83,2.83-1.55,1.07-3.51,1.98-5.86,2.72-2.35.74-4.75,1.11-7.19,1.11s-4.77-.49-6.88-1.47c-2.11-.98-3.87-2.3-5.27-3.97-2.96-3.52-4.44-8.33-4.44-14.43,0-4.44.71-8.8,2.14-13.07,1.42-4.28,3.35-8.03,5.77-11.27,2.42-3.24,5.36-5.85,8.8-7.83,3.44-1.98,7.07-2.97,10.88-2.97s6.77.9,8.88,2.69c2.11,1.8,3.16,4.12,3.16,6.97,0,1.67-.29,3.38-.86,5.14-.57,1.76-1.6,3.57-3.08,5.44-1.48,1.87-3.31,3.53-5.5,4.97-2.18,1.44-5.06,2.64-8.63,3.58-3.57.94-7.58,1.44-12.02,1.47-.41,3.15-.61,5-.61,5.55,0,.81.04,1.61.11,2.39.07.78.31,1.76.69,2.94.39,1.19.92,2.21,1.58,3.08.67.87,1.65,1.62,2.94,2.25,1.3.63,2.83.94,4.61.94,2.48,0,4.87-.6,7.16-1.8,2.29-1.2,4.98-3.1,8.05-5.69ZM137.1,89.03c3.26-.3,6.15-.86,8.69-1.69,2.53-.83,4.5-1.74,5.88-2.72,1.39-.98,2.53-2.06,3.41-3.25.89-1.18,1.47-2.2,1.75-3.05.28-.85.42-1.63.42-2.33,0-1.22-.4-2.21-1.19-2.97-.8-.76-1.92-1.14-3.36-1.14-.52,0-1.07.05-1.67.14-.59.09-1.55.46-2.86,1.11-1.31.65-2.55,1.52-3.72,2.61-1.17,1.09-2.43,2.79-3.8,5.11-1.37,2.31-2.55,5.04-3.55,8.19Z"/>
  <path class="st1" d="M217.27,37.9l-8.72,55.35c-.85,5.52-1.28,9.24-1.28,11.16,0,1.7.19,3.16.58,4.39s.82,2.14,1.3,2.75c.48.61,1.11,1.1,1.89,1.47s1.41.59,1.89.67c.48.07,1.05.13,1.72.17l-.56,2.05c-.93,2.78-2.78,4.16-5.55,4.16-.48,0-.99-.05-1.53-.14-.54-.09-1.25-.36-2.14-.8s-1.69-1.04-2.42-1.78-1.39-1.85-2-3.33-1.03-3.2-1.25-5.16c-.56,1.11-1.04,1.99-1.44,2.64-.41.65-1.06,1.47-1.97,2.47-.91,1-1.97,1.91-3.19,2.72-3.22,2.26-6.79,3.39-10.71,3.39-5.29,0-9.32-1.78-12.07-5.33-2.76-3.55-4.14-8.36-4.14-14.43,0-3.22.42-6.5,1.25-9.83s2.06-6.5,3.69-9.52c1.63-3.02,3.54-5.71,5.75-8.08,2.2-2.37,4.79-4.25,7.77-5.63,2.98-1.39,6.1-2.08,9.35-2.08,4.11,0,7.33,1.48,9.66,4.44l3.11-19.43c.52-3.7.78-6.01.78-6.94s-.07-1.98-.22-3.16l10.44-2.17ZM175.14,100.75c0,7.81,2.61,11.71,7.83,11.71,1.59,0,3.13-.36,4.61-1.08,1.48-.72,2.73-1.63,3.75-2.72,1.02-1.09,1.81-2.02,2.39-2.78.57-.76,1.01-1.43,1.3-2.03,1.52-2.55,2.86-6.39,4.02-11.52,1.17-5.12,1.75-8.98,1.75-11.57,0-2.29-.63-4.2-1.89-5.72-1.26-1.52-3.09-2.28-5.5-2.28-3.22,0-6.25,1.31-9.08,3.94-2.83,2.63-5.07,6.1-6.72,10.41-1.65,4.31-2.47,8.85-2.47,13.63Z"/>
  <path class="st1" d="M235.49,107.13l5.11-11.16c5.55-12.84,8.7-20.41,9.44-22.71.89-2.7,1.2-5.09.94-7.16h10.77c-.85,2.89-1.59,5.23-2.22,7.02-.63,1.8-1.92,4.88-3.86,9.24-1.94,4.37-4.62,10.01-8.02,16.93-1.81,3.85-5.07,10.07-9.77,18.65-4.7,8.59-8.79,15.36-12.27,20.32-.7.89-1.3,1.45-1.8,1.69-.5.24-1.19.36-2.08.36h-10.1c1.26-1.15,2.29-2.15,3.08-3,.8-.85,2.06-2.48,3.8-4.89,1.74-2.41,3.68-5.38,5.83-8.94.92-1.52,1.64-2.77,2.14-3.75.5-.98,1.01-2.43,1.53-4.36.52-1.92.78-3.92.78-6,0-3.07-.73-7.54-2.19-13.41-1.46-5.87-2.97-10.76-4.52-14.68-.7-1.7-1.42-3.15-2.17-4.36-.74-1.2-1.5-2.13-2.28-2.78-.78-.65-1.4-1.1-1.86-1.36-.46-.26-1.01-.5-1.64-.72l3.66-4.66c.85-1.22,2.05-1.83,3.61-1.83,3.96,0,7.64,6.33,11.05,18.99,2.22,8.4,3.24,15.92,3.05,22.54Z"/>
  <path class="st2" d="M288.3,37.9l-9.55,60.35c-.33,2.67-.5,4.29-.5,4.88,0,.48.03.9.08,1.25.06.35.21.8.47,1.36.26.56.72.98,1.39,1.28.67.3,1.54.44,2.61.44,1.52,0,3.03-.11,4.55-.33l-4.05,9.21c-1.18,2.55-3.92,3.83-8.22,3.83s-8.05-.91-11.05-2.72c-3.7-2.26-5.55-6.03-5.55-11.33,0-1.78.39-5.05,1.17-9.83l6.66-42.53c.63-3.92.94-6.68.94-8.27,0-1.33-.22-2.85-.67-4.55l21.71-3.05Z"/>
  <path class="st2" d="M334.8,66.11h11.83c-2.37,4.11-4.36,9.87-5.97,17.29-1.61,7.42-2.42,13.28-2.42,17.57,0,2.81.59,4.87,1.78,6.16,1.18,1.3,3.42,1.83,6.72,1.61-.63,2.04-1.2,3.66-1.72,4.86-.52,1.2-1.2,2.36-2.05,3.47-.85,1.11-1.91,1.91-3.17,2.39-1.26.48-2.79.72-4.61.72-4.92,0-8.68-2.26-11.27-6.77-2.44,2.52-4.82,4.28-7.13,5.27-2.31,1-4.86,1.5-7.63,1.5-6.29,0-11.32-2.05-15.07-6.16-3.76-4.11-5.63-9.4-5.63-15.88,0-2.96.44-5.98,1.33-9.05.89-3.07,2.21-6.02,3.97-8.85,1.76-2.83,3.84-5.36,6.25-7.58,2.41-2.22,5.24-3.99,8.49-5.3,3.26-1.31,6.7-1.97,10.33-1.97,1.85,0,3.54.25,5.08.75,1.54.5,2.61.95,3.22,1.36.61.41,1.32.96,2.14,1.67.89-1.26,1.64-2.08,2.25-2.47.61-.39,1.71-.58,3.3-.58ZM307.99,98.47c0,1,.03,1.77.08,2.3.06.54.18,1.16.36,1.86.18.7.52,1.21,1,1.53.48.32,1.11.47,1.89.47,1.67,0,3.21-.88,4.64-2.64,1.42-1.76,2.53-3.83,3.3-6.22.78-2.39,1.39-4.64,1.83-6.75.44-2.11.67-3.7.67-4.77,0-2.18-.91-3.28-2.72-3.28s-3.55,1.05-5.33,3.16c-1.78,2.11-3.17,4.52-4.19,7.25-1.02,2.72-1.53,5.08-1.53,7.08Z"/>
  <path class="st2" d="M405,64.83l-5.22,32.75c-.37,2.33-.56,4.18-.56,5.55s.34,2.48,1.03,3.22c.68.74,2.12,1.11,4.3,1.11,1,0,2.26-.15,3.78-.44l-3.22,7.72c-1.52,3.63-4.74,5.44-9.66,5.44-2,0-3.77-.19-5.3-.58-1.54-.39-2.78-.94-3.72-1.67-.94-.72-1.64-1.33-2.08-1.83-.44-.5-.91-1.14-1.39-1.92-2.78,2.41-5.38,4.01-7.8,4.8-2.42.79-4.99,1.19-7.69,1.19-5.14,0-9.04-1.21-11.69-3.64-2.65-2.42-3.97-5.71-3.97-9.85,0-1.81.18-3.55.55-5.22l2.5-15.82c.29-2.37.44-3.66.44-3.89,0-1.33-.35-2.32-1.05-2.97-.7-.65-1.55-.96-2.53-.94-.98.02-2.01.05-3.08.08l4.27-9.33c.26-.59.54-1.07.83-1.44.29-.37.99-.76,2.08-1.17,1.09-.41,2.51-.61,4.25-.61,3.89,0,7.27,1.04,10.16,3.11,3.11,2.15,4.66,5.88,4.66,11.21,0,1.33-.2,3.27-.61,5.83l-2.5,16.15c-.15.3-.22.89-.22,1.78,0,1.22.61,1.83,1.83,1.83.89,0,1.71-.19,2.47-.58.76-.39,1.4-.98,1.92-1.78.52-.8.96-1.58,1.33-2.36.37-.78.7-1.76,1-2.94.3-1.18.51-2.14.64-2.86s.29-1.64.47-2.75l1.94-12.21c.37-2.92.56-5.18.56-6.77,0-1.96-.15-3.68-.44-5.16l21.71-3.05Z"/>
  <path class="st2" d="M412.58,119.07l5.33-33.64c.3-1.48.44-2.67.44-3.55,0-.63-.04-1.11-.11-1.44s-.28-.77-.61-1.3c-.33-.54-.94-.93-1.83-1.19-.89-.26-2.04-.39-3.44-.39-.52,0-1.59.13-3.22.39l4.11-8.44c1.11-2.74,4-4.11,8.66-4.11,1.78,0,3.37.19,4.77.58,1.41.39,2.57.94,3.5,1.67s1.6,1.31,2.03,1.78c.43.46.9,1.06,1.42,1.8,5.48-3.89,11.08-5.83,16.82-5.83,4.96,0,8.89,1.14,11.8,3.41,2.91,2.28,4.36,5.54,4.36,9.8,0,.44-.17,2-.5,4.66l-2.61,16.16c-.22,1.11-.33,2.31-.33,3.61,0,1.48.42,2.59,1.25,3.33.83.74,2.4,1.11,4.69,1.11,1.22,0,2.28-.11,3.17-.33l-2.5,6.83c-.44,1.18-1.01,2.2-1.69,3.05-.69.85-1.33,1.47-1.94,1.86s-1.35.69-2.22.92c-.87.22-1.53.34-1.97.36-.44.02-1.05.03-1.83.03-5.14,0-9.24-1.24-12.27-3.72-1.59-1.33-2.71-2.8-3.36-4.41-.65-1.61-.97-3.67-.97-6.19,0-1.74.26-4.39.78-7.94l1.94-12.38c.22-1.55.33-2.57.33-3.05,0-1-.57-1.5-1.72-1.5-.26,0-.55.02-.89.06s-.91.21-1.72.53c-.81.31-1.54.74-2.17,1.28-.63.54-1.27,1.4-1.92,2.58s-1.1,2.59-1.36,4.22l-4.77,29.42h-19.43Z"/>
  <path class="st2" d="M534.98,37.9l-9.22,57.96c-.52,3.07-.78,5.24-.78,6.5,0,1.48.24,2.69.72,3.64.48.94,1.17,1.59,2.05,1.94.89.35,1.72.57,2.5.67.78.09,1.7.1,2.78.03l-1,3.72c-.3.96-.62,1.79-.97,2.47-.35.69-.92,1.5-1.69,2.44-.78.94-1.85,1.67-3.22,2.17-1.37.5-2.98.75-4.83.75-1.59,0-3.01-.17-4.25-.5-1.24-.33-2.33-.85-3.28-1.55-.94-.7-1.67-1.31-2.17-1.83-.5-.52-1.14-1.26-1.92-2.22-5.07,4.07-10.25,6.11-15.54,6.11-6.29,0-11.3-2.03-15.02-6.08-3.72-4.05-5.58-9.45-5.58-16.18,0-5.44,1.32-10.65,3.97-15.63,2.65-4.98,6.32-9.04,11.02-12.19,4.7-3.15,9.79-4.72,15.27-4.72,2.59,0,4.94.46,7.05,1.39l2.17-13.21c.52-3.29.78-5.98.78-8.05,0-1.48-.19-3-.55-4.55l21.71-3.05ZM493.12,98.03c0,.93.02,1.64.06,2.14.04.5.15,1.17.33,2,.18.83.53,1.45,1.03,1.86.5.41,1.14.61,1.92.61,1.78,0,3.39-.84,4.86-2.53,1.46-1.68,2.6-3.69,3.41-6.02.81-2.33,1.43-4.52,1.86-6.55.42-2.04.64-3.63.64-4.77,0-2.59-.98-3.89-2.94-3.89-1.55,0-3.06.7-4.52,2.11-1.46,1.41-2.66,3.07-3.58,5-.92,1.92-1.67,3.81-2.22,5.66-.55,1.85-.83,3.31-.83,4.39Z"/>
  <path class="st2" d="M551.94,119.07h-19.54l6.27-38.2c.52-3.48.78-6.18.78-8.1,0-1.63-.15-3.37-.44-5.22l18.54-2.72-1.5,9.44c.59-1,1.05-1.75,1.36-2.25s.91-1.25,1.78-2.25c.87-1,1.73-1.76,2.58-2.28.85-.52,1.97-1,3.36-1.44,1.39-.44,2.88-.67,4.47-.67.96,0,1.81.07,2.55.22.74.15,1.33.31,1.78.5.44.19.8.48,1.08.89.28.41.48.71.61.92.13.2.19.56.19,1.08v.97c0,.13-.04.44-.11.92l-1.78,11.6c-1.52-1-3.54-1.5-6.05-1.5-1.74,0-3.29.26-4.64.78-1.35.52-2.42,1.15-3.19,1.89-.78.74-1.44,1.66-2,2.75s-.95,2.09-1.19,3c-.24.91-.44,1.93-.58,3.08l-4.33,26.59Z"/>
  <path class="st2" d="M560.01,77.93l7.94-10.27c1.22-1.52,2.89-2.28,5-2.28,1.33,0,2.55.2,3.66.61,1.11.41,2.28,1.18,3.52,2.3,1.24,1.13,2.45,2.65,3.64,4.55,1.18,1.91,2.44,4.41,3.78,7.52,1.33,3.11,2.68,6.79,4.05,11.05,5.48-11.47,7.97-19.91,7.49-25.31h20.49c-.85,5.03-3.17,11.66-6.97,19.87-3.79,8.22-7.88,15.99-12.24,23.32-4.37,7.33-8.47,13.82-12.3,19.49-3.83,5.66-6.38,8.97-7.63,9.94-1.41,1.07-2.79,1.61-4.16,1.61h-21.65c3.11-2.89,7.85-8.12,14.21-15.71,3.55-4.22,6.19-7.66,7.91-10.33,1.72-2.67,2.58-4.83,2.58-6.5,0-1.85-1.29-5.84-3.86-11.96-2.57-6.12-4.58-10.32-6.02-12.57-2.18-3.4-5.33-5.18-9.44-5.33Z"/>
  <path class="st0" d="M275.22,34.6c4.91-1.33,7.9-5.85,6.68-10.08-1.22-4.24-6.2-6.59-11.11-5.25-4.91,1.33-7.9,5.85-6.68,10.08,1.22,4.24,6.2,6.59,11.11,5.25"/>
  <path class="st0" d="M264.1,18.15c3.61-2.32,4.89-6.48,2.85-9.3-2.04-2.82-6.62-3.23-10.23-.91-3.61,2.32-4.89,6.48-2.85,9.3,2.04,2.82,6.62,3.23,10.23.91"/>
  <path class="st0" d="M250.49,5.33c-.37-3.7-2.9-6.29-5.65-5.8-2.75.49-4.68,3.89-4.31-7.58.37,3.7,2.9,6.29,5.65,5.8,2.75-.49,4.68-3.89,4.31-7.58"/>
  <path class="st0" d="M236.06,7.44c-.97-2.85-3.29-4.45-5.18-3.58-1.89.87-2.63,3.88-1.66,6.73.97,2.85,3.29,4.45,5.18,3.58,1.89-.87,2.63-3.88,1.66-6.73"/>
  <path class="st0" d="M225.01,12.64c-2.14-1.77-4.74-1.91-5.81-.31-1.07,1.6-.19,4.32,1.95,6.09,2.14,1.77,4.74,1.91,5.81.31,1.07-1.6.19-4.32-1.95-6.09"/>
  <path class="st0" d="M218.16,21c-2.49-.74-4.85-.43-5.28.69-.43,1.12,1.24,2.62,3.73,3.36,2.49.74,4.85.43,5.28-.69.43-1.12-1.24-2.62-3.73-3.36"/>
  <path class="st0" d="M214.42,27.99c-2.16-.42-4.16-.42-4.47.02-.31.43,1.19,1.13,3.35,1.55,2.16.42,4.16.42,4.47-.02.31-.43-1.19-1.13-3.35-1.55"/>
  <path class="st0" d="M213.35,34.03c-2.17-.35-4.17-.27-4.46.17-.29.44,1.23,1.09,3.4,1.44,2.17.35,4.17.27,4.46-.17.29-.44-1.23-1.09-3.4-1.44"/>
</svg>
