<svg xmlns="http://www.w3.org/2000/svg" version="1.1" xmlns:xlink="http://www.w3.org/1999/xlink" width="1000" height="1000"><g clip-path="url(#SvgjsClipPath1140)"><rect width="1000" height="1000" fill="#ffffff"></rect><g transform="matrix(1.953125,0,0,1.953125,0,0)"><svg xmlns="http://www.w3.org/2000/svg" viewBox="0 0 512 512" width="512" height="512"><defs>
    <linearGradient id="bg" x1="0%" y1="0%" x2="100%" y2="100%">
      <stop offset="0%" style="stop-color:#0095da"></stop>
      <stop offset="100%" style="stop-color:#006ba6"></stop>
    </linearGradient>
  <clipPath id="SvgjsClipPath1140"><rect width="1000" height="1000" x="0" y="0" rx="500" ry="500"></rect></clipPath></defs><rect width="512" height="512" rx="96" ry="96" fill="url(#bg)"></rect><path d="
    M 108 310
    C 108 350, 135 372, 175 372
    C 210 372, 240 355, 240 325
    C 240 300, 218 288, 185 275
    C 155 263, 128 248, 128 210
    C 128 165, 165 138, 210 138
    C 240 138, 262 148, 275 165
    L 255 195
    C 245 182, 230 172, 210 172
    C 182 172, 165 188, 165 210
    C 165 235, 188 247, 218 258
    C 252 272, 278 290, 278 328
    C 278 375, 238 405, 178 405
    C 135 405, 105 380, 95 355
    Z
  " fill="#ffffff"></path><path d="
    M 270 138
    L 310 138
    L 310 365
    L 420 365
    L 420 400
    L 270 400
    Z
  " fill="#ffffff"></path><circle cx="295" cy="118" r="12" fill="#ffffff" opacity="0.9"></circle><circle cx="275" cy="105" r="9" fill="#ffffff" opacity="0.7"></circle><circle cx="258" cy="98" r="7" fill="#ffffff" opacity="0.5"></circle><circle cx="244" cy="96" r="5" fill="#ffffff" opacity="0.35"></circle></svg></g></g></svg>